<?xml version="1.0" standalone="no"?>
<!DOCTYPE svg PUBLIC "-//W3C//DTD SVG 20010904//EN"
 "http://www.w3.org/TR/2001/REC-SVG-20010904/DTD/svg10.dtd">
<svg version="1.0" xmlns="http://www.w3.org/2000/svg"
 width="720.000000pt" height="900.000000pt" viewBox="0 0 720.000000 900.000000"
 preserveAspectRatio="xMidYMid meet">

<g transform="translate(0.000000,900.000000) scale(0.100000,-0.100000)"
fill="#000000" stroke="none">
<path d="M2746 6056 c-241 -123 -449 -232 -463 -242 -21 -17 -32 -53 -88 -307
-49 -221 -64 -304 -63 -360 1 -57 -32 -239 -155 -855 -86 -431 -157 -796 -157
-811 0 -15 8 -35 18 -44 9 -8 152 -57 317 -108 274 -84 307 -92 385 -93 72 -1
90 -5 118 -24 17 -13 32 -29 32 -36 0 -8 17 -18 39 -23 38 -10 39 -9 55 23 8
19 14 34 12 34 -2 0 -201 61 -442 135 -242 74 -445 135 -451 135 -7 0 -13 4
-13 10 0 11 134 678 218 1085 47 226 62 281 75 283 9 2 17 -2 17 -10 0 -28
-66 -397 -90 -501 -6 -27 -13 -74 -16 -105 -3 -32 -9 -73 -14 -92 -13 -52 -27
-125 -46 -225 -17 -95 -72 -359 -80 -386 -4 -15 27 -27 260 -100 41 -13 50
-11 36 6 -7 8 -19 15 -28 15 -8 0 -13 3 -9 6 9 10 -76 84 -90 79 -7 -2 -13 0
-13 4 0 5 6 11 13 14 6 2 -1 8 -16 12 -21 6 -27 12 -24 26 3 10 -2 27 -10 39
-9 12 -16 46 -17 80 0 32 -5 56 -10 53 -5 -4 -6 8 -3 27 4 18 7 48 7 67 0 19
3 32 8 29 4 -2 6 13 4 35 -2 21 0 39 5 39 5 0 10 21 12 48 1 26 6 51 12 56 5
6 9 20 9 32 0 13 5 26 10 29 6 3 10 14 10 23 0 36 43 70 110 87 138 34 250
147 266 269 6 38 3 48 -18 69 -13 13 -46 32 -73 42 -76 28 -78 31 -61 106 15
60 14 66 -4 103 -23 47 -21 53 11 27 21 -16 25 -30 29 -97 l5 -78 60 -33 c80
-44 103 -72 111 -133 6 -42 11 -52 37 -65 39 -19 40 -19 83 10 63 42 109 33
125 -27 9 -34 13 -39 32 -34 40 10 48 -5 50 -95 2 -79 0 -90 -32 -149 -28 -54
-32 -72 -28 -113 5 -62 40 -99 113 -122 111 -35 199 7 228 109 18 61 39 83
121 124 58 29 101 66 123 107 l11 20 1 -20 c0 -11 -11 -44 -25 -72 l-24 -52
27 -19 c15 -10 45 -24 67 -31 22 -8 45 -16 51 -18 7 -2 23 32 39 82 27 83 30
87 54 82 l26 -5 0 131 c0 157 16 237 48 237 23 0 228 -60 310 -90 47 -18 56
-25 59 -48 2 -22 16 -34 78 -66 64 -33 87 -39 156 -44 124 -7 130 -5 143 73 7
36 9 70 7 74 -9 14 -98 34 -166 36 -36 1 -104 14 -152 29 -47 14 -94 23 -104
19 -10 -4 -22 0 -30 11 -9 13 -26 17 -61 17 -67 -1 -175 28 -169 46 4 8 -2 13
-17 13 -13 0 -29 6 -36 13 -11 10 -13 10 -7 0 4 -7 3 -13 -2 -13 -6 0 -13 15
-16 34 -5 25 -14 37 -37 46 -36 15 -92 16 -97 1 -6 -17 -32 -13 -32 4 0 8 -8
15 -17 16 -11 0 -13 3 -5 6 24 9 11 22 -40 39 -64 20 -77 30 -72 52 2 9 15 73
30 141 l27 125 -37 30 c-56 48 -46 86 23 86 21 0 29 7 37 28 9 26 8 28 -51 49
-33 13 -68 23 -77 23 -19 0 -44 -73 -77 -226 -11 -49 -32 -145 -46 -214 -25
-114 -45 -163 -60 -148 -3 3 10 84 28 179 19 96 45 245 58 333 l23 159 36 22
c121 75 170 100 238 118 132 34 143 34 219 -9 57 -33 77 -39 128 -39 63 0 76
-7 179 -88 46 -37 88 -48 216 -56 97 -6 110 -9 172 -44 56 -32 73 -37 102 -32
27 5 65 -3 160 -35 70 -23 126 -47 126 -54 0 -6 -34 -38 -76 -70 -41 -32 -78
-64 -81 -72 -3 -7 -27 -29 -54 -49 -27 -19 -51 -45 -53 -57 -49 -239 -131
-678 -147 -793 -18 -130 -76 -393 -78 -358 -1 10 -7 10 -25 2 -37 -17 -72 -4
-87 33 -17 41 -16 149 1 245 12 65 11 75 -4 98 -29 44 -43 42 -99 -19 -59 -63
-94 -72 -141 -35 -34 27 -47 51 -55 108 -9 63 -37 68 -69 11 -13 -23 -42 -53
-65 -68 l-43 -27 33 -28 c18 -16 33 -35 33 -42 0 -7 15 -28 34 -46 23 -23 41
-55 54 -99 24 -78 46 -126 71 -160 10 -14 35 -51 56 -84 l38 -58 64 6 c64 7
66 6 110 -30 24 -20 46 -34 48 -32 2 2 10 30 17 63 13 58 13 57 12 -79 -1
-157 -2 -161 -79 -171 -74 -9 -88 5 -96 99 -7 86 -26 119 -68 114 -30 -4 -40
-21 -83 -142 -37 -107 -72 -152 -111 -143 -33 9 -84 52 -102 88 -21 40 -19
119 6 201 28 91 22 143 -21 181 -16 15 -35 27 -41 27 -5 0 -34 -22 -63 -50
-56 -52 -78 -60 -112 -35 -23 15 -59 127 -50 151 3 8 1 14 -4 14 -15 0 -12
-116 4 -155 17 -40 42 -55 91 -55 29 0 44 8 76 40 45 46 60 49 90 19 18 -18
20 -29 15 -69 -4 -27 -16 -74 -27 -107 -19 -56 -19 -72 -3 -155 6 -28 3 -30
-91 -69 -31 -12 -31 -12 -21 -60 7 -36 16 -51 30 -55 93 -28 160 -168 126
-260 -12 -30 -13 -29 18 -38 l22 -7 0 138 c0 76 5 145 10 153 7 12 30 15 102
15 79 0 98 -3 129 -23 66 -40 89 -134 50 -198 -19 -31 -19 -32 1 -75 12 -28
18 -56 14 -76 -4 -31 -3 -33 25 -33 24 0 29 -4 29 -25 0 -14 -2 -25 -4 -25 -3
0 -40 11 -83 25 -119 37 -169 46 -196 36 -34 -13 -63 -4 -75 24 -16 35 -64 42
-101 14 -17 -13 -31 -25 -31 -28 0 -8 438 -143 481 -148 33 -5 40 -1 92 59
l57 63 -67 3 c-37 2 -73 8 -80 14 -15 12 -19 353 -4 376 9 15 47 18 193 14
l97 -2 7 -37 c10 -53 -9 -63 -118 -63 -87 0 -88 0 -88 -25 0 -23 3 -24 73 -27
l72 -3 3 -35 c5 -46 -17 -60 -90 -60 -55 0 -58 -1 -58 -25 0 -25 1 -25 79 -25
l80 0 47 50 c33 35 50 47 55 38 4 -7 44 -130 89 -273 45 -143 85 -263 88 -267
7 -6 837 253 849 265 6 7 -254 837 -265 848 -4 4 -78 -16 -165 -43 -87 -28
-161 -47 -164 -44 -8 8 295 1533 312 1571 17 38 105 465 105 509 0 20 -8 40
-19 50 -31 28 -2031 627 -2111 632 l-65 4 -439 -224z m673 108 c102 -30 245
-73 316 -94 72 -22 454 -137 850 -255 395 -119 721 -217 723 -219 2 -3 -17
-109 -43 -238 -34 -172 -52 -238 -66 -253 -19 -19 -19 -19 -19 0 0 11 4 36 9
55 5 19 12 51 15 70 l6 34 -40 -39 c-36 -35 -40 -37 -40 -17 0 37 -22 25 -98
-50 -47 -49 -74 -84 -78 -105 -3 -17 -22 -46 -41 -65 -33 -32 -34 -32 -29 -8
10 41 44 275 41 278 -8 9 -1335 433 -1360 435 -22 1 -83 -26 -217 -98 l-186
-99 -22 -106 c-12 -58 -44 -195 -70 -305 -27 -110 -56 -237 -66 -283 -16 -75
-20 -83 -38 -79 -12 3 -35 8 -52 12 l-31 7 -18 -71 c-11 -39 -21 -75 -25 -80
-3 -6 -52 4 -113 22 -123 37 -118 27 -91 167 8 45 13 84 11 87 -3 2 -65 20
-138 39 -74 20 -136 37 -138 39 -1 2 4 40 13 85 9 44 14 84 12 89 -3 4 -48 21
-101 37 -67 20 -95 33 -95 44 1 8 29 138 63 288 l62 273 450 229 c248 126 452
229 454 229 2 1 88 -24 190 -55z m-1151 -1029 c5 -4 -37 -206 -48 -231 -4 -12
-18 -24 -29 -27 -27 -7 -27 2 4 149 14 65 25 120 25 122 0 3 42 -8 48 -13z
m2521 -387 c-4 -24 -8 -49 -9 -55 0 -24 -20 -13 -20 11 0 43 12 86 25 86 9 0
10 -11 4 -42z m-452 -990 c-3 -8 -6 -5 -6 6 -1 11 2 17 5 13 3 -3 4 -12 1 -19z
m545 -652 l94 -67 -40 -116 c-36 -106 -42 -116 -72 -129 -18 -8 -35 -14 -38
-14 -3 0 13 50 35 110 21 61 39 115 39 120 0 4 -43 39 -95 76 -52 37 -95 69
-95 71 0 8 46 22 61 19 9 -2 59 -34 111 -70z m411 -156 c5 -18 -7 -24 -101
-54 -95 -30 -108 -32 -114 -17 -4 9 -7 19 -7 23 -1 8 174 67 200 68 9 0 19 -9
22 -20z"/>
<path d="M3593 5554 c-26 -13 -31 -20 -23 -34 8 -14 28 -18 112 -22 57 -3 104
-5 105 -4 1 1 -20 16 -46 34 -58 40 -105 48 -148 26z"/>
<path d="M3444 5500 c-13 -13 16 -122 35 -128 6 -2 11 1 11 7 0 17 19 13 53
-12 18 -13 52 -29 77 -36 25 -7 55 -17 67 -22 13 -5 25 -4 28 1 9 14 -3 30
-23 30 -34 0 -93 22 -117 43 -15 13 -30 42 -38 72 -11 47 -14 50 -47 53 -19 2
-40 -2 -46 -8z"/>
<path d="M3850 5450 c0 -27 -5 -42 -17 -49 -30 -16 -4 -26 60 -24 90 4 130
-10 165 -58 23 -31 31 -36 36 -24 7 20 -4 37 -72 109 -69 73 -89 86 -134 86
-38 0 -38 0 -38 -40z"/>
<path d="M3655 5443 c-36 -9 -38 -21 -4 -37 37 -16 62 -20 124 -17 40 1 40 1
15 15 -93 50 -90 50 -135 39z"/>
<path d="M3376 5425 c-23 -17 -21 -20 17 -29 29 -7 34 1 15 27 -12 14 -15 14
-32 2z"/>
<path d="M4290 5345 c0 -2 8 -20 17 -40 13 -27 24 -36 51 -41 26 -5 37 -3 44
10 5 9 17 16 26 16 13 0 12 4 -7 19 -35 27 -131 53 -131 36z"/>
<path d="M4148 5324 c-16 -15 -7 -41 26 -77 35 -38 56 -44 100 -27 l26 9 -22
46 c-12 25 -29 45 -37 45 -9 0 -32 3 -51 6 -19 3 -38 2 -42 -2z"/>
<path d="M3920 5310 c0 -8 90 -60 105 -60 12 0 -25 58 -40 64 -25 9 -65 7 -65
-4z"/>
<path d="M4536 5262 c17 -15 124 -52 124 -42 0 21 -54 50 -93 50 -23 0 -37 -4
-31 -8z"/>
<path d="M4714 5225 c11 -8 22 -12 25 -9 6 6 -19 24 -34 24 -5 -1 -1 -7 9 -15z"/>
<path d="M4130 5220 c20 -13 33 -13 25 0 -3 6 -14 10 -23 10 -15 0 -15 -2 -2
-10z"/>
<path d="M4565 5198 c17 -12 37 -31 46 -42 10 -13 18 -15 23 -8 10 16 -35 59
-69 67 l-30 7 30 -24z"/>
<path d="M4318 5194 c-13 -13 -9 -32 8 -38 9 -4 57 -15 107 -26 49 -11 96 -25
103 -31 11 -9 15 -8 20 4 9 24 -14 57 -50 72 -39 16 -178 30 -188 19z"/>
<path d="M2374 4205 c-24 -24 -25 -30 -19 -98 7 -84 -9 -139 -64 -226 -68
-105 -49 -199 49 -249 52 -27 103 -25 178 8 73 33 112 68 139 128 23 49 25 63
21 156 -7 150 -50 231 -149 281 -65 33 -122 33 -155 0z"/>
<path d="M2935 3707 c-69 -32 -82 -76 -54 -182 28 -109 25 -126 -31 -142 -49
-14 -90 -55 -90 -89 0 -11 11 -31 24 -43 22 -21 29 -22 57 -12 75 26 168 1
189 -52 8 -19 9 -17 9 14 1 47 7 49 194 49 154 0 187 -7 187 -40 0 -44 -10
-50 -76 -50 l-64 0 0 -33 c0 -32 3 -34 56 -51 59 -19 73 -14 74 24 0 35 55
101 104 125 28 14 56 25 63 25 10 0 8 11 -8 43 -32 64 -85 124 -135 153 -40
23 -52 26 -127 23 l-82 -4 -1 62 c0 71 -28 120 -90 163 -45 30 -151 39 -199
17z"/>
<path d="M2883 3153 c-11 -4 -20 -43 -10 -43 1 0 67 -20 147 -45 80 -25 148
-45 152 -45 5 0 8 17 8 39 l0 38 -75 22 c-47 14 -86 20 -104 16 -19 -4 -41 -1
-60 9 -31 17 -38 18 -58 9z"/>
<path d="M3100 3151 c8 -5 30 -12 48 -16 25 -5 32 -3 32 9 0 12 -11 16 -47 16
-32 -1 -43 -3 -33 -9z"/>
<path d="M3544 3125 c-25 -17 -49 -69 -41 -88 3 -8 25 -19 49 -24 147 -36 141
-37 141 30 0 33 -6 46 -32 69 -35 32 -84 37 -117 13z"/>
<path d="M3930 3095 l0 -45 43 6 c48 8 67 20 67 43 0 28 -22 41 -67 41 l-43 0
0 -45z"/>
<path d="M3274 3046 c-15 -40 0 -60 61 -78 33 -10 67 -21 76 -24 15 -4 15 -1
2 40 -13 40 -20 47 -61 60 -56 20 -71 20 -78 2z"/>
<path d="M3520 2981 c0 -19 46 -41 85 -40 l40 0 -54 25 c-58 26 -71 29 -71 15z"/>
<path d="M3930 2931 c0 -14 14 -25 53 -39 28 -11 53 -16 55 -12 2 5 -4 22 -13
39 -13 27 -21 31 -55 31 -33 0 -40 -3 -40 -19z"/>
</g>
</svg>
